<svg width="36" height="36" viewBox="0 0 36 36" fill="none" xmlns="http://www.w3.org/2000/svg">
<path d="M26.7063 18.6307C26.6694 14.6324 30.0641 12.6872 30.2193 12.5966C28.2967 9.86366 25.3169 9.49026 24.2697 9.46048C21.767 9.20369 19.3393 10.9206 18.0644 10.9206C16.764 10.9206 14.8008 9.48529 12.6848 9.52747C9.96196 9.56841 7.41468 11.1055 6.01762 13.4923C3.13444 18.359 5.28474 25.5108 8.04705 29.4446C9.42884 31.3712 11.0435 33.5223 13.1569 33.4466C15.2245 33.3635 15.9968 32.1614 18.4919 32.1614C20.9641 32.1614 21.6893 33.4466 23.8447 33.3983C26.0637 33.3635 27.4608 31.463 28.7942 29.519C30.3911 27.3108 31.0323 25.1362 31.0578 25.0245C31.0056 25.0071 26.7483 23.4229 26.7063 18.6307Z" fill="#E1D4C9"/>
<path d="M22.6347 6.87268C23.7468 5.51675 24.5076 3.67205 24.2964 1.80005C22.6869 1.86952 20.674 2.88554 19.5149 4.21169C18.4893 5.38029 17.5732 7.29571 17.8099 9.097C19.6179 9.2285 21.4743 8.20752 22.6347 6.87268Z" fill="#E1D4C9"/>
</svg>
