<svg width="72" height="28" viewBox="0 0 72 28" fill="none" xmlns="http://www.w3.org/2000/svg">
<path d="M1.14773 6.36364H3.72727L7.18182 14.7955H7.31818L10.7727 6.36364H13.3523V18H11.3295V10.0057H11.2216L8.00568 17.9659H6.49432L3.27841 9.98864H3.17045V18H1.14773V6.36364ZM19.4205 18.1705C18.5455 18.1705 17.7898 17.9886 17.1534 17.625C16.5208 17.2576 16.0341 16.7386 15.6932 16.0682C15.3523 15.3939 15.1818 14.6004 15.1818 13.6875C15.1818 12.7898 15.3523 12.0019 15.6932 11.3239C16.0379 10.642 16.5189 10.1117 17.1364 9.73295C17.7538 9.35038 18.4792 9.15909 19.3125 9.15909C19.8504 9.15909 20.358 9.24621 20.8352 9.42045C21.3163 9.59091 21.7405 9.85606 22.108 10.2159C22.4792 10.5758 22.7708 11.0341 22.983 11.5909C23.1951 12.1439 23.3011 12.803 23.3011 13.5682V14.1989H16.1477V12.8125H21.3295C21.3258 12.4186 21.2405 12.0682 21.0739 11.7614C20.9072 11.4508 20.6742 11.2064 20.375 11.0284C20.0795 10.8504 19.7348 10.7614 19.3409 10.7614C18.9205 10.7614 18.5511 10.8636 18.233 11.0682C17.9148 11.2689 17.6667 11.5341 17.4886 11.8636C17.3144 12.1894 17.2254 12.5473 17.2216 12.9375V14.1477C17.2216 14.6553 17.3144 15.0909 17.5 15.4545C17.6856 15.8144 17.9451 16.0909 18.2784 16.2841C18.6117 16.4735 19.0019 16.5682 19.4489 16.5682C19.7481 16.5682 20.0189 16.5265 20.2614 16.4432C20.5038 16.3561 20.714 16.2292 20.892 16.0625C21.0701 15.8958 21.2045 15.6894 21.2955 15.4432L23.2159 15.6591C23.0947 16.1667 22.8636 16.6098 22.5227 16.9886C22.1856 17.3636 21.7538 17.6553 21.2273 17.8636C20.7008 18.0682 20.0985 18.1705 19.4205 18.1705ZM27.098 12.8864V18H25.0412V9.27273H27.0071V10.7557H27.1094C27.3101 10.267 27.6302 9.87879 28.0696 9.59091C28.5128 9.30303 29.0601 9.15909 29.7116 9.15909C30.3139 9.15909 30.8385 9.28788 31.2855 9.54545C31.7363 9.80303 32.0848 10.1761 32.331 10.6648C32.581 11.1534 32.7041 11.7462 32.7003 12.4432V18H30.6435V12.7614C30.6435 12.178 30.492 11.7216 30.1889 11.392C29.8897 11.0625 29.4749 10.8977 28.9446 10.8977C28.5848 10.8977 28.2647 10.9773 27.9844 11.1364C27.7079 11.2917 27.4901 11.517 27.331 11.8125C27.1757 12.108 27.098 12.4659 27.098 12.8864ZM40.3537 14.3295V9.27273H42.4105V18H40.4162V16.4489H40.3253C40.1283 16.9375 39.8045 17.3371 39.3537 17.6477C38.9067 17.9583 38.3556 18.1136 37.7003 18.1136C37.1283 18.1136 36.6226 17.9867 36.1832 17.733C35.7476 17.4754 35.4067 17.1023 35.1605 16.6136C34.9143 16.1212 34.7912 15.5265 34.7912 14.8295V9.27273H36.848V14.5114C36.848 15.0644 36.9995 15.5038 37.3026 15.8295C37.6056 16.1553 38.0033 16.3182 38.4957 16.3182C38.7988 16.3182 39.0923 16.2443 39.3764 16.0966C39.6605 15.9489 39.8935 15.7292 40.0753 15.4375C40.2609 15.142 40.3537 14.7727 40.3537 14.3295Z" fill="#403F3D"/>
<path d="M66.167 9.76667V11.6667C66.167 14.8883 63.5553 17.5 60.3337 17.5C57.112 17.5 54.5003 14.8883 54.5003 11.6667V9.76667C54.5003 9.4353 54.769 9.16667 55.1003 9.16667H65.567C65.8984 9.16667 66.167 9.4353 66.167 9.76667Z" stroke="#403F3D" stroke-width="1.5" stroke-linecap="round" stroke-linejoin="round"/>
<path d="M62.0003 7.50008C62.0003 6.66675 62.5956 5.83341 63.786 5.83341V5.83341C65.101 5.83341 66.167 4.76743 66.167 3.45246V2.91675" stroke="#403F3D" stroke-width="1.5" stroke-linecap="round" stroke-linejoin="round"/>
<path d="M58.6663 7.5V7.08333C58.6663 5.70262 59.7856 4.58333 61.1663 4.58333V4.58333C62.0868 4.58333 62.833 3.83714 62.833 2.91667V2.5" stroke="#403F3D" stroke-width="1.5" stroke-linecap="round" stroke-linejoin="round"/>
<path d="M65.333 9.16675H67.4163C68.5669 9.16675 69.4997 10.0995 69.4997 11.2501C69.4997 12.4007 68.5669 13.3334 67.4163 13.3334H66.1663" stroke="#403F3D" stroke-width="1.5" stroke-linecap="round" stroke-linejoin="round"/>
</svg>
